<svg version="1.1" width="83" height="120" viewBox="-1 -1 83 120" xmlns="http://www.w3.org/2000/svg" xmlns:xlink="http://www.w3.org/1999/xlink">
  <!-- Exported by Scratch - http://scratch.mit.edu/ -->
  <g id="ID0.18927750270813704">
    <path id="ID0.5727774994447827" fill="#FAA51F" stroke="#8E5322" stroke-width="1.4" stroke-linecap="round" stroke-linejoin="round" d="M 248.400 199.500 C 248.400 199.500 253.200 202.200 256.200 201.800 C 259.200 201.400 266.700 198.500 268.200 202.100 C 270.500 207.400 263 210.300 255.400 209.400 C 247.800 208.500 247 205.500 247 205.500 C 247 205.500 243.400 201.200 248.400 199.500 Z " transform="matrix(1, 0, 0, 1, -198.9, -120.15)"/>
    <g id="ID0.15018064202740788">
      <path id="ID0.0022303410805761814" fill="#2DB674" stroke="#249960" stroke-width="1.4" stroke-linecap="round" stroke-linejoin="round" d="M 266.500 126.800 L 266.500 168.900 C 261.900 165 255.900 163.100 249.900 163.100 C 243.900 163.100 237.900 165 233.300 168.900 C 228.700 172.800 222.700 174.700 216.700 174.700 C 211.100 174.700 205.500 173 201 169.600 C 200.400 169.200 200.100 168.500 200.100 167.800 L 200.100 131.300 C 200.100 129.500 202 128.400 203.500 129.300 C 212.600 134.500 225.100 133.700 233.200 126.900 C 238 123 244 121 250 121 C 256 121 262 123 266.500 126.800 Z " transform="matrix(1, 0, 0, 1, -198.9, -120.15)"/>
      <path id="ID0.322779958602041" fill="#C49A6C" stroke="#8E5322" stroke-width="1.4" stroke-linecap="round" stroke-linejoin="round" d="M 267.300 237.600 L 267.300 237.600 C 266.200 237.600 265.400 236.700 265.400 235.700 L 265.400 123.400 C 265.400 122.300 266.300 121.500 267.300 121.500 L 267.300 121.500 C 268.400 121.500 269.200 122.400 269.200 123.400 L 269.200 235.700 C 269.200 236.800 268.400 237.600 267.300 237.600 Z " transform="matrix(1, 0, 0, 1, -198.9, -120.15)"/>
    </g>
    <g id="ID0.8764806007966399">
      <g id="ID0.5848894719965756">
        <path id="ID0.9688692162744701" fill="#FAA51F" stroke="#8E5322" stroke-width="1.4" stroke-linecap="round" stroke-linejoin="round" d="M 250.400 215.900 C 250.400 215.900 248.700 221.400 249.500 230.200 C 249.800 234 256.900 229.700 256.400 237.100 C 256.200 239.200 247 239 244.900 238.200 C 243 237.500 242.500 236.800 242.800 234.800 C 243.900 227.500 240.200 219.100 240.200 219.100 " transform="matrix(1, 0, 0, 1, -198.9, -120.15)"/>
        <path id="ID0.8580465861596167" fill="#FAA51F" stroke="#8E5322" stroke-width="1.4" stroke-linecap="round" stroke-linejoin="round" d="M 251.500 232 C 251.500 232 250.200 231.800 248.700 232.100 " transform="matrix(1, 0, 0, 1, -198.9, -120.15)"/>
      </g>
      <g id="Layer_3_17_">
        <path id="ID0.8597759031690657" fill="#FAA51F" d="M 225 218.700 C 222.500 219 219.500 219 216.500 217.600 C 209.800 214.500 205.700 207.100 202.600 210.300 C 199.500 213.500 203.400 226.100 216.400 226.400 C 220.900 226.500 224.600 225.400 227.500 224.400 C 228.300 224.100 234.800 221.500 236.100 217.500 C 237.400 213.500 235.500 213.100 234.600 212.900 C 233.600 212.700 228.500 218.300 225 218.700 Z " transform="matrix(1, 0, 0, 1, -198.9, -120.15)"/>
        <path id="ID0.664166315458715" fill="#FFFFFF" d="M 202.800 210 C 201.100 211.200 201.300 216.200 203.300 219.300 C 205.300 222.400 207.800 223.800 209.400 224.800 C 211.200 225.400 207.900 222.100 209.400 219.800 C 210.900 217.500 215.100 216.900 215.100 216.900 C 215.100 216.900 210.800 213.700 208.500 211.800 C 206.300 210 204.700 208.900 202.800 210 Z " transform="matrix(1, 0, 0, 1, -198.9, -120.15)"/>
        <path id="ID0.8333435310050845" fill="none" stroke="#8E5322" stroke-width="1.4" stroke-linecap="round" stroke-linejoin="round" d="M 225 218.700 C 222.500 219 219.500 219 216.500 217.600 C 209.800 214.500 205.700 207.100 202.600 210.300 C 199.500 213.500 203.400 226.100 216.400 226.400 C 220.900 226.500 224.600 225.400 227.500 224.400 C 228.300 224.100 234.800 221.500 236.100 217.500 C 237.400 213.500 235.500 213.100 234.600 212.900 C 233.600 212.700 228.500 218.300 225 218.700 Z " transform="matrix(1, 0, 0, 1, -198.9, -120.15)"/>
      </g>
      <g id="Layer_2_34_">
        <path id="ID0.13604674255475402" fill="#FAA51F" stroke="#8E5322" stroke-width="1.4" stroke-linecap="round" stroke-linejoin="round" d="M 241.200 213.900 " transform="matrix(1, 0, 0, 1, -198.9, -120.15)"/>
      </g>
      <path id="ID0.5372069948352873" fill="#FAA51F" stroke="#8E5322" stroke-width="1.4" stroke-linecap="round" stroke-linejoin="round" d="M 251.200 205 C 251.200 211.700 252.900 221.500 241 221.500 C 229.100 221.500 230.200 212.500 230.200 205.800 C 230.200 199.100 234.300 197.300 241 197.300 C 247.800 197.400 251.200 198.400 251.200 205 Z " transform="matrix(1, 0, 0, 1, -198.9, -120.15)"/>
      <path id="ID0.8330662995576859" fill="#FFFFFF" d="M 248.600 208 C 248.600 212.200 249.500 218.500 243.100 218.500 C 236.600 218.500 237.200 212.800 237.200 208.600 C 237.200 204.400 239.400 203.200 243.100 203.200 C 246.800 203.100 248.600 203.800 248.600 208 Z " transform="matrix(1, 0, 0, 1, -198.9, -120.15)"/>
      <g id="ID0.7237860024906695">
        <path id="ID0.7046695598401129" fill="#FAA51F" stroke="#8E5322" stroke-width="1.4" stroke-linecap="round" stroke-linejoin="round" d="M 231 215.900 C 231 215.900 233.600 221.400 232.300 230.100 C 231.700 233.900 226.100 229.200 226.500 236.800 C 226.600 239.300 234.200 239.100 236.400 238.700 C 238.500 238.300 239.300 237.200 239.100 235.100 C 238.800 230.900 240.300 221.800 240.300 221.800 " transform="matrix(1, 0, 0, 1, -198.9, -120.15)"/>
        <path id="ID0.9048826927319169" fill="#FAA51F" stroke="#8E5322" stroke-width="1.4" stroke-linecap="round" stroke-linejoin="round" d="M 230 232 C 230 232 231.600 231.800 233 232.200 " transform="matrix(1, 0, 0, 1, -198.9, -120.15)"/>
      </g>
      <g id="ID0.8750209757126868">
        <path id="ID0.052675919607281685" fill="#FAA51F" stroke="#8E5322" stroke-width="1.4" stroke-linecap="round" stroke-linejoin="round" d="M 227.800 209 C 233.400 210.400 232.800 212.400 232.700 214 C 232.500 218 229 218.400 221.700 215.400 C 216.300 213.200 217.500 203 228.100 197 L 236 198.400 " transform="matrix(1, 0, 0, 1, -198.9, -120.15)"/>
        <path id="ID0.10933882696554065" fill="none" stroke="#8E5322" stroke-width="1.4" stroke-linecap="round" stroke-linejoin="round" d="M 230.900 207.200 " transform="matrix(1, 0, 0, 1, -198.9, -120.15)"/>
        <path id="ID0.408109936863184" fill="#FAA51F" stroke="#8E5322" stroke-width="1.4" stroke-linecap="round" stroke-linejoin="round" d="M 227.800 209 L 230.400 204.900 " transform="matrix(1, 0, 0, 1, -198.9, -120.15)"/>
        <path id="ID0.7358559756539762" fill="none" stroke="#8E5322" stroke-width="1.4" stroke-linecap="round" stroke-linejoin="round" d="M 227.800 209 L 226.500 208.600 " transform="matrix(1, 0, 0, 1, -198.9, -120.15)"/>
      </g>
      <g id="Layer_2_33_">
        <path id="ID0.40986254904419184" fill="#FAA51F" d="M 241.200 152.200 C 239.700 152.100 236.600 151.900 234.900 152 C 230.300 152.200 226 153.900 226 153.900 L 213.400 145.700 L 215.600 164 C 216.200 163.200 205.400 176.400 212.200 187.400 C 219.100 198.500 233.700 203.400 251.900 199.800 C 270.100 196.200 274.400 185.700 273.200 180.200 C 272 174.700 265.100 172.600 265.100 172.600 C 265.100 172.600 265 168.300 261.900 163 C 260 159.800 253.800 155.200 253.800 155.200 L 251 144 L 243.800 151 L 241.200 152.200 Z " transform="matrix(1, 0, 0, 1, -198.9, -120.15)"/>
        <path id="ID0.18952649366110563" fill="#FFFFFF" d="M 264.200 172.400 L 261.800 170.400 L 253 173 C 253 173 253 176.300 248.800 177.200 C 244.600 178.100 237.500 176.500 237.500 176.500 L 230.400 178.300 C 230.400 178.300 222.300 177.800 221.900 184.200 C 221.200 195.300 230.500 200.600 239 200.500 C 244.500 200.500 248 199.800 251.900 199.100 C 269.100 196 274 185.600 272.500 180.100 C 271.300 174.600 264.700 173 264.700 173 L 264.200 172.400 Z " transform="matrix(1, 0, 0, 1, -198.9, -120.15)"/>
        <path id="ID0.3893165811896324" fill="none" stroke="#8E5322" stroke-width="1.4" stroke-linecap="round" stroke-linejoin="round" d="M 269.200 177.800 C 269.200 177.800 273.600 177.100 275.800 176.300 C 278.400 175.400 280.200 173.800 280.200 173.800 " transform="matrix(1, 0, 0, 1, -198.9, -120.15)"/>
        <path id="ID0.29737274581566453" fill="none" stroke="#8E5322" stroke-width="1.4" stroke-linecap="round" stroke-linejoin="round" d="M 269.700 183.600 C 269.700 183.600 272.300 184.700 275.100 184.900 C 277.800 185.200 279.600 185 279.600 185 " transform="matrix(1, 0, 0, 1, -198.9, -120.15)"/>
        <path id="ID0.40111656207591295" fill="none" stroke="#8E5322" stroke-width="1.4" stroke-linecap="round" stroke-linejoin="round" d="M 223.700 152.300 L 228.900 155.900 " transform="matrix(1, 0, 0, 1, -198.9, -120.15)"/>
        <path id="ID0.6319624870084226" fill="none" stroke="#8E5322" stroke-width="1.4" stroke-linecap="round" stroke-linejoin="round" d="M 241.200 152.200 C 239.700 152.100 236.600 151.900 234.900 152 C 230.300 152.200 226 153.900 226 153.900 L 213.400 145.700 L 215.600 164 C 216.200 163.200 205.400 176.400 212.200 187.400 C 219.100 198.500 233.700 203.400 251.900 199.800 C 270.100 196.200 274.400 185.700 273.200 180.200 C 272 174.700 265.100 172.600 265.100 172.600 C 265.100 172.600 265 168.300 261.900 163 C 260 159.800 253.800 155.200 253.800 155.200 L 251 144 L 243.800 151 L 241.200 152.200 Z " transform="matrix(1, 0, 0, 1, -198.9, -120.15)"/>
        <path id="ID0.5735878190025687" fill="none" stroke="#8E5322" stroke-width="1.4" stroke-linecap="round" stroke-linejoin="round" d="M 200.500 183.200 C 200.500 183.200 204.500 183.600 206.300 183.500 C 208.100 183.400 211.600 182.900 211.600 182.900 " transform="matrix(1, 0, 0, 1, -198.9, -120.15)"/>
        <path id="ID0.275175922550261" fill="none" stroke="#8E5322" stroke-width="1.4" stroke-linecap="round" stroke-linejoin="round" d="M 211.800 179 C 211.800 179 209.500 177.300 205.900 175.700 C 201.900 173.900 199.700 173.500 199.700 173.500 " transform="matrix(1, 0, 0, 1, -198.9, -120.15)"/>
      </g>
      <g id="Layer_5_19_">
        <path id="ID0.4454393577761948" fill="#FFFFFF" stroke="#8E5322" stroke-width="1.4" stroke-linecap="round" stroke-linejoin="round" d="M 259.700 163 C 262.500 167.300 262.600 172.300 259.900 174 C 257.200 175.800 252.700 173.700 249.900 169.300 C 247.100 165 247 160 249.700 158.300 C 252.400 156.600 256.900 158.700 259.700 163 Z " transform="matrix(1, 0, 0, 1, -198.9, -120.15)"/>
        <path id="ID0.465943141374737" fill="#414142" d="M 259.600 166.600 C 259.900 167.600 259.400 168.600 258.400 168.900 C 257.500 169.200 256.500 168.600 256.200 167.500 C 255.900 166.500 256.400 165.500 257.400 165.200 C 258.400 165 259.400 165.600 259.600 166.600 " transform="matrix(1, 0, 0, 1, -198.9, -120.15)"/>
      </g>
      <g id="Layer_7_19_">
        <path id="ID0.0011587096378207207" fill="#FFFFFF" stroke="#8E5322" stroke-width="1.4" stroke-linecap="round" stroke-linejoin="round" d="M 236.500 166.200 C 239.300 170.500 239 175.700 235.800 177.800 C 232.600 179.900 227.700 178.100 224.900 173.700 C 222.100 169.400 222.400 164.200 225.600 162.100 C 228.800 160 233.700 161.800 236.500 166.200 Z " transform="matrix(1, 0, 0, 1, -198.9, -120.15)"/>
        <path id="ID0.018554972019046545" fill="#414142" d="M 236.200 170 C 236.200 171 235.400 171.900 234.500 171.900 C 233.500 171.900 232.800 171.100 232.800 170 C 232.800 169 233.600 168.100 234.500 168.100 C 235.400 168.100 236.200 169 236.200 170 " transform="matrix(1, 0, 0, 1, -198.9, -120.15)"/>
      </g>
      <path id="ID0.4509335858747363" fill="#5F4B43" stroke="#8E5322" stroke-width="1.4" stroke-linecap="round" stroke-linejoin="round" d="M 247.500 176.100 C 249.200 175.900 251.500 174.600 251.800 176.500 C 251.800 177.300 250.200 180.600 248.400 180.700 C 246.400 180.800 242.900 178.300 243 176.800 C 243.100 175.300 246 176.300 247.500 176.100 Z " transform="matrix(1, 0, 0, 1, -198.9, -120.15)"/>
      <path id="ID0.7148231486789882" fill="#FFFFFF" stroke="#8E5322" stroke-width="1.4" stroke-linecap="round" stroke-linejoin="round" d="M 238.400 191.500 C 238.400 191.500 240.900 193.800 246.300 192.700 " transform="matrix(1, 0, 0, 1, -198.9, -120.15)"/>
    </g>
  </g>
</svg>