<svg version="1.1" width="126" height="79" viewBox="-1 -1 126 79" xmlns="http://www.w3.org/2000/svg" xmlns:xlink="http://www.w3.org/1999/xlink">
  <!-- Exported by Scratch - http://scratch.mit.edu/ -->
  <g id="ID0.4824009691365063" transform="matrix(1, 0, 0, 1, -179, -141.5)">
    <g id="ID0.027167292777448893">
      <g id="Layer_3_2_">
        <path id="ID0.8525817915797234" fill="#FAA51F" d="M 197.600 199.300 C 195.400 198 193 196.200 191.400 193.300 C 187.900 186.800 189 178.400 184.600 179.100 C 180.200 179.800 175.800 192.300 186 200.300 C 189.500 203.100 193.200 204.400 196.100 205.300 C 196.900 205.600 203.700 207.300 207.100 204.900 C 210.500 202.400 209.200 201.100 208.600 200.300 C 208.100 199.600 200.600 201.100 197.600 199.300 Z "/>
        <path id="ID0.7132608946412802" fill="#FFFFFF" d="M 184.900 179.100 C 182.800 179 180 183.200 179.800 186.900 C 179.600 190.600 180.700 193.200 181.400 194.900 C 182.500 196.400 181.800 191.800 184.400 190.900 C 187 189.900 190.800 192 190.800 192 C 190.800 192 189.200 186.800 188.500 184 C 187.700 181.200 187.100 179.300 184.900 179.100 Z "/>
        <path id="ID0.9166756123304367" fill="none" stroke="#8E5322" stroke-width="1.4" stroke-linecap="round" stroke-linejoin="round" d="M 197.600 199.300 C 195.400 198 193 196.200 191.400 193.300 C 187.900 186.800 189 178.400 184.600 179.100 C 180.200 179.800 175.800 192.300 186 200.300 C 189.500 203.100 193.200 204.400 196.100 205.300 C 196.900 205.600 203.700 207.300 207.100 204.900 C 210.500 202.400 209.200 201.100 208.600 200.300 C 208.100 199.600 200.600 201.100 197.600 199.300 Z "/>
      </g>
      <path id="ID0.489590504206717" fill="#FAA51F" d="M 210.200 218.200 L 253 217 C 259.600 217 263.900 211.100 260.700 205.400 C 254.900 195.200 242.500 188.100 228.100 188.100 C 215.900 188.100 209.100 188.200 202.600 193.200 C 193.700 200.200 199.200 218.200 210.200 218.200 Z "/>
      <path id="ID0.14147621719166636" fill="#FFFFFF" d="M 206.300 218.200 C 206.300 218.200 207.700 209.700 219.700 210 C 231.700 210.300 233.300 218.200 233.300 218.200 L 206.300 218.200 Z "/>
      <path id="ID0.5162518499419093" fill="#FAA51F" d="M 229.100 209.800 L 229.100 209.800 C 227.900 210.700 227.200 212 227.200 213.500 L 227.200 213.600 L 232.300 213.300 L 229.100 209.800 Z "/>
      <path id="ID0.5781896342523396" fill="#FAA51F" stroke="#8E5322" stroke-width="1.4" stroke-linecap="round" stroke-linejoin="round" d="M 268.700 210.100 C 271.200 210.100 272.800 210.500 273 213.500 C 273.200 216.500 272.600 218.400 269.700 218.400 L 262.900 218.400 C 253.300 218.600 249.100 215.200 249.500 211.400 "/>
      <g id="Layer_2_4_">
        <path id="ID0.7098919367417693" fill="#FAA51F" stroke="#8E5322" stroke-width="1.4" stroke-linecap="round" stroke-linejoin="round" d="M 209.400 197.100 "/>
      </g>
      <path id="ID0.20142192766070366" fill="none" stroke="#8E5322" stroke-width="1.4" stroke-linecap="round" stroke-linejoin="round" d="M 210.200 218.200 L 243.700 218.200 C 256 218.200 261.300 202.300 251.300 195.200 C 245.000 190.800 236.900 188.100 228.100 188.100 C 215.900 188.100 209.100 188.200 202.600 193.200 C 193.700 200.200 199.200 218.200 210.200 218.200 Z "/>
      <path id="ID0.20396148692816496" fill="#FAA51F" d="M 209.400 210.900 L 209.100 215.600 L 204.700 215.600 L 209.400 210.900 "/>
      <path id="ID0.04486634023487568" fill="#FAA51F" stroke="#8E5322" stroke-width="1.4" stroke-linecap="round" stroke-linejoin="round" d="M 247.600 210.100 C 250.700 210.100 252.600 210.500 252.900 213.500 C 253.200 216.500 252.500 218.400 248.800 218.400 L 244.100 218.400 C 232.400 218.600 227.200 215.200 227.600 211.400 "/>
      <path id="ID0.2074874211102724" fill="#FAA51F" stroke="#8E5322" stroke-width="1.4" stroke-linecap="round" stroke-linejoin="round" d="M 208.900 214 C 209.300 217.700 198.800 218.100 194.500 218.100 L 189.100 218.100 C 186.300 218.100 185.700 216.200 186 213.200 C 186.200 210.200 187.700 209.800 190.100 209.800 C 190.100 209.800 198.200 209.800 198.400 204.600 "/>
      <path id="ID0.8429202474653721" fill="#FAA51F" stroke="#8E5322" stroke-width="1.4" stroke-linecap="round" stroke-linejoin="round" d="M 246.500 212.100 C 246.500 212.100 243.700 213.900 242.100 213.300 "/>
      <g id="Layer_2_3_">
        <path id="ID0.30292635736986995" fill="#FAA51F" d="M 252.200 166.100 C 250.700 165.800 247.700 165.300 246 165.200 C 241.400 164.900 236.900 166 236.900 166 L 225.300 156.400 L 225.400 174.800 C 226.100 174.100 213.900 186 219.400 197.700 C 225 209.500 239 216.000 257.400 214.500 C 275.800 213.000 281.300 203.100 280.800 197.400 C 280.200 191.800 273.700 189.000 273.700 189.000 C 273.700 189.000 274.100 184.700 271.600 179.000 C 270.100 175.600 264.400 170.400 264.400 170.400 L 262.900 159.000 L 254.900 165.100 L 252.200 166.100 Z "/>
        <path id="ID0.7089672978036106" fill="#FFFFFF" d="M 272.800 188.800 L 270.600 186.500 L 261.500 188.100 C 261.500 188.100 261.100 191.400 256.800 191.800 C 252.500 192.200 245.600 189.800 245.600 189.800 L 238.400 190.800 C 238.400 190.800 230.400 189.400 229.300 195.700 C 227.400 206.600 236.000 212.900 244.400 213.800 C 249.900 214.400 253.400 214.200 257.400 213.800 C 274.800 212.600 280.900 202.900 280.000 197.200 C 279.400 191.600 273.000 189.200 273.000 189.200 L 272.800 188.800 Z "/>
        <path id="ID0.5096964915283024" fill="none" stroke="#8E5322" stroke-width="1.4" stroke-linecap="round" stroke-linejoin="round" d="M 277.200 194.700 C 277.200 194.700 281.700 194.500 284 194 C 286.700 193.400 288.600 192 288.600 192 "/>
        <path id="ID0.1744217979721725" fill="none" stroke="#8E5322" stroke-width="1.4" stroke-linecap="round" stroke-linejoin="round" d="M 277 200.500 C 277 200.500 279.500 201.900 282.200 202.400 C 284.800 203 286.700 203 286.700 203 "/>
        <path id="ID0.24706662399694324" fill="none" stroke="#8E5322" stroke-width="1.4" stroke-linecap="round" stroke-linejoin="round" d="M 251.900 166.100 C 254.600 167.100 255.500 167.900 255.500 167.900 "/>
        <path id="ID0.7140064011327922" fill="none" stroke="#8E5322" stroke-width="1.4" stroke-linecap="round" stroke-linejoin="round" d="M 234.800 164.300 L 239.600 168.400 "/>
        <path id="ID0.5402058805339038" fill="none" stroke="#8E5322" stroke-width="1.4" stroke-linecap="round" stroke-linejoin="round" d="M 208.300 192.300 C 208.300 192.300 212.200 193.100 214 193.200 C 215.800 193.300 219.300 193.200 219.300 193.200 "/>
        <path id="ID0.2818531538359821" fill="none" stroke="#8E5322" stroke-width="1.4" stroke-linecap="round" stroke-linejoin="round" d="M 220 189.500 C 220 189.500 217.900 187.500 214.500 185.500 C 210.700 183.300 208.600 182.600 208.600 182.600 "/>
        <g id="Layer_5_2_">
          <path id="ID0.6299363803118467" fill="#FAA51F" stroke="#8E5322" stroke-width="1.4" stroke-linecap="round" stroke-linejoin="round" d="M 268.400 178.900 C 270.700 183.500 270.300 188.500 267.400 189.900 C 264.500 191.400 260.300 188.800 258 184.100 C 255.700 179.500 256.100 174.500 259 173.100 C 261.900 171.700 266.100 174.300 268.400 178.900 Z "/>
          <path id="ID0.6663597454316914" fill="#FAA51F" stroke="#8E5322" stroke-width="1.4" stroke-linecap="round" stroke-linejoin="round" d="M 256.900 181.400 C 256.900 181.400 262.900 177.800 269.600 182.500 "/>
        </g>
        <g id="Layer_7_2_">
          <path id="ID0.26213094033300877" fill="#FAA51F" stroke="#8E5322" stroke-width="1.4" stroke-linecap="round" stroke-linejoin="round" d="M 246 179.500 C 248.300 184.100 247.400 189.300 244 191 C 240.600 192.700 235.900 190.400 233.600 185.700 C 231.300 181.100 232.200 175.900 235.600 174.200 C 239 172.500 243.700 174.800 246 179.500 Z "/>
          <path id="ID0.1503613330423832" fill="#FAA51F" stroke="#8E5322" stroke-width="1.4" stroke-linecap="round" stroke-linejoin="round" d="M 233.700 185.700 C 233.700 185.700 237.900 180.700 246.500 180.400 "/>
        </g>
        <path id="ID0.9406157485209405" fill="#5F4B43" stroke="#8E5322" stroke-width="1.4" stroke-linecap="round" stroke-linejoin="round" d="M 255.800 190.500 C 257.500 190.500 260 189.500 260.100 191.400 C 260 192.200 258.100 195.300 256.200 195.200 C 254.200 195.100 251.000 192.200 251.300 190.700 C 251.500 189.200 254.300 190.500 255.800 190.500 Z "/>
        <path id="ID0.621160842012614" fill="#FFFFFF" stroke="#8E5322" stroke-width="1.4" stroke-linecap="round" stroke-linejoin="round" d="M 250.500 205.900 C 251.052 205.900 251.552 206.124 251.914 206.486 C 252.276 206.848 252.500 207.348 252.500 207.900 C 252.500 208.452 252.276 208.952 251.914 209.314 C 251.552 209.676 251.052 209.900 250.500 209.900 C 249.948 209.900 249.448 209.676 249.086 209.314 C 248.724 208.952 248.500 208.452 248.500 207.900 C 248.500 207.348 248.724 206.848 249.086 206.486 C 249.448 206.124 249.948 205.900 250.500 205.900 Z " transform="matrix(0.5254999995231628, -0.8507999777793884, 0.8507999777793884, 0.5254999995231628, -58, 311.8)"/>
        <path id="ID0.2688632714562118" fill="none" stroke="#8E5322" stroke-width="1.4" stroke-linecap="round" stroke-linejoin="round" d="M 252.200 166.100 C 250.700 165.800 247.700 165.300 246 165.200 C 241.400 164.900 236.900 166 236.900 166 L 225.300 156.400 L 225.400 174.800 C 226.100 174.100 213.900 186 219.400 197.700 C 225 209.500 239 216.000 257.400 214.500 C 275.800 213.000 281.300 203.100 280.800 197.400 C 280.200 191.800 273.700 189.000 273.700 189.000 C 273.700 189.000 274.100 184.700 271.600 179.000 C 270.100 175.600 264.400 170.400 264.400 170.400 L 262.900 159.000 L 254.900 165.100 L 252.200 166.100 Z "/>
      </g>
    </g>
    <g id="ID0.09244956029579043">
      <path id="ID0.17668865201994777" fill="#27AAE1" d="M 303.100 154.900 C 302.900 155.200 302.500 155.300 302.200 155.300 L 292.900 155.900 C 292.900 155.900 292.800 155.900 292.800 155.900 C 292.100 155.900 291.600 155.400 291.500 154.700 C 291.500 154.400 291.600 154.000 291.800 153.800 L 291.800 153.800 L 297.700 145.300 L 293.300 146.300 C 293.200 146.300 293.100 146.300 293 146.300 C 292.400 146.300 291.800 145.800 291.700 145.200 L 291.500 144.000 C 291.400 143.600 291.500 143.300 291.700 143.000 C 291.900 142.700 292.300 142.600 292.600 142.500 L 301.900 141.800 C 302.600 141.700 303.200 142.300 303.300 143.000 C 303.300 143.400 303.200 143.700 303.000 144.000 C 303.000 144.000 303.000 144.100 302.900 144.100 L 296.200 152.700 L 301.600 151.600 C 301.700 151.600 301.800 151.600 301.900 151.600 C 302.500 151.600 303.100 152.100 303.200 152.700 L 303.400 153.900 C 303.500 154.200 303.400 154.600 303.100 154.900 Z "/>
    </g>
    <g id="ID0.4125502621755004">
      <path id="ID0.6040209936909378" fill="#27AAE1" d="M 301.800 171.900 C 301.600 172.100 301.400 172.200 301.200 172.200 L 294.700 172.600 C 294.700 172.600 294.700 172.600 294.600 172.600 C 294.100 172.600 293.700 172.200 293.700 171.800 C 293.700 171.600 293.800 171.300 293.900 171.100 L 293.900 171.100 L 298 165.200 L 294.900 165.900 C 294.800 165.900 294.800 165.900 294.700 165.900 C 294.300 165.900 293.900 165.600 293.800 165.100 L 293.600 164.200 C 293.500 163.900 293.600 163.700 293.800 163.500 C 294 163.300 294.200 163.200 294.400 163.200 L 300.900 162.700 C 301.400 162.700 301.800 163 301.900 163.500 C 301.900 163.800 301.800 164 301.700 164.200 C 301.700 164.200 301.700 164.300 301.700 164.300 L 297.000 170.300 L 300.700 169.600 C 300.800 169.600 300.800 169.600 300.900 169.600 C 301.400 169.600 301.700 169.900 301.800 170.400 L 302 171.300 C 302.100 171.400 302 171.700 301.800 171.900 Z "/>
    </g>
    <g id="ID0.061228759586811066">
      <path id="ID0.8704516859725118" fill="#27AAE1" d="M 293.300 182.900 C 293.200 183 293.100 183.100 292.900 183.100 L 289.100 183.300 C 289.100 183.300 289.100 183.300 289.100 183.300 C 288.800 183.300 288.600 183.100 288.600 182.800 C 288.600 182.700 288.600 182.500 288.700 182.400 L 288.700 182.400 L 291.100 179.000 L 289.300 179.400 C 289.300 179.400 289.200 179.400 289.200 179.400 C 288.900 179.400 288.700 179.200 288.700 178.900 L 288.600 178.400 C 288.600 178.300 288.600 178.100 288.700 178.000 C 288.800 177.900 288.900 177.800 289.100 177.800 L 292.800 177.500 C 293.100 177.500 293.300 177.700 293.400 178.000 C 293.400 178.100 293.400 178.300 293.300 178.400 C 293.300 178.400 293.300 178.400 293.300 178.400 L 290.600 181.900 L 292.800 181.500 C 292.800 181.500 292.900 181.500 292.900 181.500 C 293.200 181.500 293.400 181.700 293.400 182.000 L 293.500 182.500 C 293.500 182.700 293.400 182.800 293.300 182.900 Z "/>
    </g>
  </g>
</svg>